<?xml version="1.0" encoding="UTF-8"?>
<svg id="Layer_1" xmlns="http://www.w3.org/2000/svg" version="1.1" viewBox="0 0 1000 1000">
  <!-- Generator: Adobe Illustrator 29.1.0, SVG Export Plug-In . SVG Version: 2.1.0 Build 142)  -->
  <defs>
    <style>
      .st0 {
        fill: #ff2866;
      }

      .st1 {
        fill: #fff;
      }

      .st2 {
        fill: #28507c;
      }
    </style>
  </defs>
  <rect class="st2" x="0" y="-.2" width="1000" height="1000" rx="100" ry="100"/>
  <path class="st1" d="M311,109.7v222.5c79-81.4,227.2-62.6,266.8,40.2,0,0,9.4,19.2,9.4,58.8v265.5h-131.4v-237.2c0-14-4.3-24-6.1-28.2-22-49.4-107.5-49.4-132,0-2,4.1-6.6,14.2-6.6,28.2v237.2s-131.4,0-131.4,0V109.7h131.4Z"/>
  <path class="st1" d="M587.1,777.3l48.3.2c26.6,0,48.3-21.5,48.3-48.1v-402.5s131.4,0,131.4,0v450.8s0,0,0,0c0,63.6-51.6,115.1-115.1,115h-112.7v-115.4Z"/>
  <path class="st0" d="M587.1,777.2v115.3c-136.6,1.3-270.8-1-407.5,0v-115.3c136.6-1.1,270.8,1.5,407.5,0Z"/>
  <circle class="st1" cx="746" cy="186" r="75.3"/>
</svg>